<svg xmlns="http://www.w3.org/2000/svg" xmlns:xlink="http://www.w3.org/1999/xlink" width="500" zoomAndPan="magnify" viewBox="0 0 375 374.999991" height="500" preserveAspectRatio="xMidYMid meet" version="1.0"><defs><filter x="0%" y="0%" width="100%" height="100%" id="5bfb9cb2e2"><feColorMatrix values="0 0 0 0 1 0 0 0 0 1 0 0 0 0 1 0 0 0 1 0" color-interpolation-filters="sRGB"/></filter><mask id="a4707d8426"><g filter="url(#5bfb9cb2e2)"><rect x="-37.5" width="450" fill="#000000" y="-37.499999" height="449.999989" fill-opacity="0.55"/></g></mask><clipPath id="13c8712f37"><path d="M 13.5 12.5 L 156.066406 12.5 L 156.066406 312.667969 L 13.5 312.667969 Z M 13.5 12.5 " clip-rule="nonzero"/></clipPath><clipPath id="cf2ec60394"><path d="M 30.75 12.5 L 138.816406 12.5 C 143.390625 12.5 147.777344 14.316406 151.011719 17.550781 C 154.246094 20.789062 156.066406 25.175781 156.066406 29.75 L 156.066406 295.25 C 156.066406 299.824219 154.246094 304.210938 151.011719 307.449219 C 147.777344 310.683594 143.390625 312.5 138.816406 312.5 L 30.75 312.5 C 26.175781 312.5 21.789062 310.683594 18.550781 307.449219 C 15.316406 304.210938 13.5 299.824219 13.5 295.25 L 13.5 29.75 C 13.5 25.175781 15.316406 20.789062 18.550781 17.550781 C 21.789062 14.316406 26.175781 12.5 30.75 12.5 Z M 30.75 12.5 " clip-rule="nonzero"/></clipPath><clipPath id="54e5276a15"><path d="M 0.5 0.5 L 143.066406 0.5 L 143.066406 300.667969 L 0.5 300.667969 Z M 0.5 0.5 " clip-rule="nonzero"/></clipPath><clipPath id="242ba189d9"><path d="M 17.75 0.5 L 125.816406 0.5 C 130.390625 0.5 134.777344 2.316406 138.011719 5.550781 C 141.246094 8.789062 143.066406 13.175781 143.066406 17.75 L 143.066406 283.25 C 143.066406 287.824219 141.246094 292.210938 138.011719 295.449219 C 134.777344 298.683594 130.390625 300.5 125.816406 300.5 L 17.75 300.5 C 13.175781 300.5 8.789062 298.683594 5.550781 295.449219 C 2.316406 292.210938 0.5 287.824219 0.5 283.25 L 0.5 17.75 C 0.5 13.175781 2.316406 8.789062 5.550781 5.550781 C 8.789062 2.316406 13.175781 0.5 17.75 0.5 Z M 17.75 0.5 " clip-rule="nonzero"/></clipPath><clipPath id="a3541565f1"><rect x="0" width="144" y="0" height="301"/></clipPath><clipPath id="6ff6a057fa"><path d="M 13.5 12.507812 L 156 12.507812 L 156 312.5 L 13.5 312.5 Z M 13.5 12.507812 " clip-rule="nonzero"/></clipPath><clipPath id="e0951929b7"><path d="M 30.75 12.507812 L 138.808594 12.507812 C 143.382812 12.507812 147.773438 14.324219 151.007812 17.558594 C 154.242188 20.792969 156.058594 25.179688 156.058594 29.757812 L 156.058594 295.242188 C 156.058594 299.820312 154.242188 304.207031 151.007812 307.441406 C 147.773438 310.675781 143.382812 312.492188 138.808594 312.492188 L 30.75 312.492188 C 26.175781 312.492188 21.785156 310.675781 18.550781 307.441406 C 15.316406 304.207031 13.5 299.820312 13.5 295.242188 L 13.5 29.757812 C 13.5 25.179688 15.316406 20.792969 18.550781 17.558594 C 21.785156 14.324219 26.175781 12.507812 30.75 12.507812 Z M 30.75 12.507812 " clip-rule="nonzero"/></clipPath><clipPath id="94a2527a06"><rect x="0" width="169" y="0" height="326"/></clipPath><mask id="7e37d4184c"><g filter="url(#5bfb9cb2e2)"><rect x="-37.5" width="450" fill="#000000" y="-37.499999" height="449.999989" fill-opacity="0.55"/></g></mask><clipPath id="9642ad9480"><path d="M 13.074219 12.535156 L 155.699219 12.535156 L 155.699219 102.464844 L 13.074219 102.464844 Z M 13.074219 12.535156 " clip-rule="nonzero"/></clipPath><clipPath id="b44aa54d00"><path d="M 30.324219 12.535156 L 138.25 12.535156 C 142.824219 12.535156 147.210938 14.351562 150.449219 17.585938 C 153.683594 20.820312 155.5 25.210938 155.5 29.785156 L 155.5 85.214844 C 155.5 89.789062 153.683594 94.179688 150.449219 97.414062 C 147.210938 100.648438 142.824219 102.464844 138.25 102.464844 L 30.324219 102.464844 C 25.75 102.464844 21.363281 100.648438 18.125 97.414062 C 14.890625 94.179688 13.074219 89.789062 13.074219 85.214844 L 13.074219 29.785156 C 13.074219 25.210938 14.890625 20.820312 18.125 17.585938 C 21.363281 14.351562 25.75 12.535156 30.324219 12.535156 Z M 30.324219 12.535156 " clip-rule="nonzero"/></clipPath><clipPath id="0b36b67cd2"><path d="M 0.0742188 0.535156 L 142.679688 0.535156 L 142.679688 90.464844 L 0.0742188 90.464844 Z M 0.0742188 0.535156 " clip-rule="nonzero"/></clipPath><clipPath id="5f7d14b9f7"><path d="M 17.324219 0.535156 L 125.25 0.535156 C 129.824219 0.535156 134.210938 2.351562 137.449219 5.585938 C 140.683594 8.820312 142.5 13.210938 142.5 17.785156 L 142.5 73.214844 C 142.5 77.789062 140.683594 82.179688 137.449219 85.414062 C 134.210938 88.648438 129.824219 90.464844 125.25 90.464844 L 17.324219 90.464844 C 12.75 90.464844 8.363281 88.648438 5.125 85.414062 C 1.890625 82.179688 0.0742188 77.789062 0.0742188 73.214844 L 0.0742188 17.785156 C 0.0742188 13.210938 1.890625 8.820312 5.125 5.585938 C 8.363281 2.351562 12.75 0.535156 17.324219 0.535156 Z M 17.324219 0.535156 " clip-rule="nonzero"/></clipPath><clipPath id="825ddc89c8"><rect x="0" width="143" y="0" height="91"/></clipPath><clipPath id="5dfec27437"><path d="M 13.074219 12.535156 L 155.574219 12.535156 L 155.574219 102.535156 L 13.074219 102.535156 Z M 13.074219 12.535156 " clip-rule="nonzero"/></clipPath><clipPath id="c6d87ae375"><path d="M 30.324219 12.535156 L 138.242188 12.535156 C 142.816406 12.535156 147.207031 14.355469 150.441406 17.589844 C 153.675781 20.824219 155.492188 25.210938 155.492188 29.785156 L 155.492188 85.214844 C 155.492188 89.789062 153.675781 94.175781 150.441406 97.410156 C 147.207031 100.644531 142.816406 102.460938 138.242188 102.460938 L 30.324219 102.460938 C 25.75 102.460938 21.359375 100.644531 18.125 97.410156 C 14.890625 94.175781 13.074219 89.789062 13.074219 85.214844 L 13.074219 29.785156 C 13.074219 25.210938 14.890625 20.824219 18.125 17.589844 C 21.359375 14.355469 25.75 12.535156 30.324219 12.535156 Z M 30.324219 12.535156 " clip-rule="nonzero"/></clipPath><clipPath id="3821339037"><rect x="0" width="168" y="0" height="115"/></clipPath><mask id="993bad872f"><g filter="url(#5bfb9cb2e2)"><rect x="-37.5" width="450" fill="#000000" y="-37.499999" height="449.999989" fill-opacity="0.55"/></g></mask><clipPath id="192e1005b1"><path d="M 13.074219 13.464844 L 155.511719 13.464844 L 155.511719 103.5 L 13.074219 103.5 Z M 13.074219 13.464844 " clip-rule="nonzero"/></clipPath><clipPath id="7254388ccb"><path d="M 30.324219 13.464844 L 138.25 13.464844 C 142.824219 13.464844 147.210938 15.28125 150.449219 18.519531 C 153.683594 21.753906 155.5 26.140625 155.5 30.714844 L 155.5 86.25 C 155.5 90.824219 153.683594 95.210938 150.449219 98.449219 C 147.210938 101.683594 142.824219 103.5 138.25 103.5 L 30.324219 103.5 C 25.75 103.5 21.363281 101.683594 18.125 98.449219 C 14.890625 95.210938 13.074219 90.824219 13.074219 86.25 L 13.074219 30.714844 C 13.074219 26.140625 14.890625 21.753906 18.125 18.519531 C 21.363281 15.28125 25.75 13.464844 30.324219 13.464844 Z M 30.324219 13.464844 " clip-rule="nonzero"/></clipPath><clipPath id="1474c58322"><path d="M 0.0742188 0.464844 L 142.511719 0.464844 L 142.511719 90.5 L 0.0742188 90.5 Z M 0.0742188 0.464844 " clip-rule="nonzero"/></clipPath><clipPath id="a58e125d8c"><path d="M 17.324219 0.464844 L 125.25 0.464844 C 129.824219 0.464844 134.210938 2.28125 137.449219 5.519531 C 140.683594 8.753906 142.5 13.140625 142.5 17.714844 L 142.5 73.25 C 142.5 77.824219 140.683594 82.210938 137.449219 85.449219 C 134.210938 88.683594 129.824219 90.5 125.25 90.5 L 17.324219 90.5 C 12.75 90.5 8.363281 88.683594 5.125 85.449219 C 1.890625 82.210938 0.0742188 77.824219 0.0742188 73.25 L 0.0742188 17.714844 C 0.0742188 13.140625 1.890625 8.753906 5.125 5.519531 C 8.363281 2.28125 12.75 0.464844 17.324219 0.464844 Z M 17.324219 0.464844 " clip-rule="nonzero"/></clipPath><clipPath id="28d0b8cc74"><rect x="0" width="143" y="0" height="91"/></clipPath><clipPath id="c37d8c9848"><path d="M 13.078125 13.464844 L 155.574219 13.464844 L 155.574219 103.464844 L 13.078125 103.464844 Z M 13.078125 13.464844 " clip-rule="nonzero"/></clipPath><clipPath id="25f04a205b"><path d="M 30.328125 13.464844 L 138.238281 13.464844 C 142.8125 13.464844 147.199219 15.28125 150.433594 18.515625 C 153.671875 21.75 155.488281 26.136719 155.488281 30.714844 L 155.488281 86.242188 C 155.488281 90.816406 153.671875 95.203125 150.433594 98.4375 C 147.199219 101.671875 142.8125 103.488281 138.238281 103.488281 L 30.328125 103.488281 C 25.753906 103.488281 21.367188 101.671875 18.132812 98.4375 C 14.894531 95.203125 13.078125 90.816406 13.078125 86.242188 L 13.078125 30.714844 C 13.078125 26.136719 14.894531 21.75 18.132812 18.515625 C 21.367188 15.28125 25.753906 13.464844 30.328125 13.464844 Z M 30.328125 13.464844 " clip-rule="nonzero"/></clipPath><clipPath id="34e1442613"><rect x="0" width="168" y="0" height="118"/></clipPath><mask id="4761bfb082"><g filter="url(#5bfb9cb2e2)"><rect x="-37.5" width="450" fill="#000000" y="-37.499999" height="449.999989" fill-opacity="0.55"/></g></mask><clipPath id="fb62f4b4bc"><path d="M 13.074219 13.5 L 155.699219 13.5 L 155.699219 103.429688 L 13.074219 103.429688 Z M 13.074219 13.5 " clip-rule="nonzero"/></clipPath><clipPath id="0a6a226451"><path d="M 30.324219 13.5 L 138.25 13.5 C 142.824219 13.5 147.210938 15.316406 150.449219 18.550781 C 153.683594 21.789062 155.5 26.175781 155.5 30.75 L 155.5 86.179688 C 155.5 90.753906 153.683594 95.144531 150.449219 98.378906 C 147.210938 101.613281 142.824219 103.429688 138.25 103.429688 L 30.324219 103.429688 C 25.75 103.429688 21.363281 101.613281 18.125 98.378906 C 14.890625 95.144531 13.074219 90.753906 13.074219 86.179688 L 13.074219 30.75 C 13.074219 26.175781 14.890625 21.789062 18.125 18.550781 C 21.363281 15.316406 25.75 13.5 30.324219 13.5 Z M 30.324219 13.5 " clip-rule="nonzero"/></clipPath><clipPath id="a6d8aa07e9"><path d="M 0.0742188 0.5 L 142.679688 0.5 L 142.679688 90.429688 L 0.0742188 90.429688 Z M 0.0742188 0.5 " clip-rule="nonzero"/></clipPath><clipPath id="1e4ba8aa4e"><path d="M 17.324219 0.5 L 125.25 0.5 C 129.824219 0.5 134.210938 2.316406 137.449219 5.550781 C 140.683594 8.789062 142.5 13.175781 142.5 17.75 L 142.5 73.179688 C 142.5 77.753906 140.683594 82.144531 137.449219 85.378906 C 134.210938 88.613281 129.824219 90.429688 125.25 90.429688 L 17.324219 90.429688 C 12.75 90.429688 8.363281 88.613281 5.125 85.378906 C 1.890625 82.144531 0.0742188 77.753906 0.0742188 73.179688 L 0.0742188 17.75 C 0.0742188 13.175781 1.890625 8.789062 5.125 5.550781 C 8.363281 2.316406 12.75 0.5 17.324219 0.5 Z M 17.324219 0.5 " clip-rule="nonzero"/></clipPath><clipPath id="b79ba48b6b"><rect x="0" width="143" y="0" height="91"/></clipPath><clipPath id="5b464753f8"><path d="M 13.074219 13.503906 L 155.574219 13.503906 L 155.574219 103.5 L 13.074219 103.5 Z M 13.074219 13.503906 " clip-rule="nonzero"/></clipPath><clipPath id="ff9eb7ca7c"><path d="M 30.324219 13.503906 L 138.242188 13.503906 C 142.816406 13.503906 147.207031 15.320312 150.441406 18.554688 C 153.675781 21.789062 155.492188 26.175781 155.492188 30.75 L 155.492188 86.179688 C 155.492188 90.753906 153.675781 95.140625 150.441406 98.375 C 147.207031 101.609375 142.816406 103.425781 138.242188 103.425781 L 30.324219 103.425781 C 25.75 103.425781 21.359375 101.609375 18.125 98.375 C 14.890625 95.140625 13.074219 90.753906 13.074219 86.179688 L 13.074219 30.75 C 13.074219 26.175781 14.890625 21.789062 18.125 18.554688 C 21.359375 15.320312 25.75 13.503906 30.324219 13.503906 Z M 30.324219 13.503906 " clip-rule="nonzero"/></clipPath><clipPath id="86ee1601cd"><rect x="0" width="168" y="0" height="116"/></clipPath></defs><path fill="#16161e" d="M 93.796875 -0.046875 C 42.023438 -0.046875 0.046875 41.929688 0.046875 93.703125 L 0.046875 281.203125 C 0.046875 332.976562 42.023438 374.953125 93.796875 374.953125 L 281.296875 374.953125 C 333.070312 374.953125 375.046875 332.976562 375.046875 281.203125 L 375.046875 93.703125 C 375.046875 41.929688 333.070312 -0.046875 281.296875 -0.046875 Z M 93.796875 -0.046875 " fill-opacity="1" fill-rule="nonzero"/><g mask="url(#a4707d8426)"><g transform="matrix(1, 0, 0, 1, 24, 25)"><g clip-path="url(#94a2527a06)"><g clip-path="url(#13c8712f37)"><g clip-path="url(#cf2ec60394)"><g transform="matrix(1, 0, 0, 1, 13, 12)"><g clip-path="url(#a3541565f1)"><g clip-path="url(#54e5276a15)"><g clip-path="url(#242ba189d9)"><path fill="#2d3f50" d="M 0.5 0.5 L 143.066406 0.5 L 143.066406 300.667969 L 0.5 300.667969 Z M 0.5 0.5 " fill-opacity="1" fill-rule="nonzero"/></g></g></g></g></g></g><g clip-path="url(#6ff6a057fa)"><g clip-path="url(#e0951929b7)"><path stroke-linecap="butt" transform="matrix(0.75, 0, 0, 0.75, 13.500002, 12.499998)" fill="none" stroke-linejoin="miter" d="M 22.999999 0.01042 L 167.078133 0.01042 C 173.177092 0.01042 179.031259 2.432295 183.343759 6.744795 C 187.65626 11.057296 190.078135 16.906254 190.078135 23.010421 L 190.078135 376.989611 C 190.078135 383.093778 187.65626 388.942737 183.343759 393.255237 C 179.031259 397.567738 173.177092 399.989613 167.078133 399.989613 L 22.999999 399.989613 C 16.90104 399.989613 11.046873 397.567738 6.734373 393.255237 C 2.421872 388.942737 -0.00000271667 383.093778 -0.00000271667 376.989611 L -0.00000271667 23.010421 C -0.00000271667 16.906254 2.421872 11.057296 6.734373 6.744795 C 11.046873 2.432295 16.90104 0.01042 22.999999 0.01042 Z M 22.999999 0.01042 " stroke="#00f2ff" stroke-width="8" stroke-opacity="1" stroke-miterlimit="4"/></g></g></g></g></g><g mask="url(#7e37d4184c)"><g transform="matrix(1, 0, 0, 1, 182, 130)"><g clip-path="url(#3821339037)"><g clip-path="url(#9642ad9480)"><g clip-path="url(#b44aa54d00)"><g transform="matrix(1, 0, 0, 1, 13, 12)"><g clip-path="url(#825ddc89c8)"><g clip-path="url(#0b36b67cd2)"><g clip-path="url(#5f7d14b9f7)"><path fill="#2d3f50" d="M 0.0742188 0.535156 L 142.347656 0.535156 L 142.347656 90.464844 L 0.0742188 90.464844 Z M 0.0742188 0.535156 " fill-opacity="1" fill-rule="nonzero"/></g></g></g></g></g></g><g clip-path="url(#5dfec27437)"><g clip-path="url(#c6d87ae375)"><path stroke-linecap="butt" transform="matrix(0.75, 0, 0, 0.75, 13.074215, 12.534795)" fill="none" stroke-linejoin="miter" d="M 23.000006 0.00048108 L 166.890641 0.00048108 C 172.989599 0.00048108 178.843766 2.427565 183.156267 6.740065 C 187.468767 11.052565 189.890642 16.901524 189.890642 23.000483 L 189.890642 96.906737 C 189.890642 103.005696 187.468767 108.854655 183.156267 113.167155 C 178.843766 117.479655 172.989599 119.901531 166.890641 119.901531 L 23.000006 119.901531 C 16.901047 119.901531 11.04688 117.479655 6.73438 113.167155 C 2.42188 108.854655 0.00000461317 103.005696 0.00000461317 96.906737 L 0.00000461317 23.000483 C 0.00000461317 16.901524 2.42188 11.052565 6.73438 6.740065 C 11.04688 2.427565 16.901047 0.00048108 23.000006 0.00048108 Z M 23.000006 0.00048108 " stroke="#00f2ff" stroke-width="8" stroke-opacity="1" stroke-miterlimit="4"/></g></g></g></g></g><g mask="url(#993bad872f)"><g transform="matrix(1, 0, 0, 1, 182, 234)"><g clip-path="url(#34e1442613)"><g clip-path="url(#192e1005b1)"><g clip-path="url(#7254388ccb)"><g transform="matrix(1, 0, 0, 1, 13, 13)"><g clip-path="url(#28d0b8cc74)"><g clip-path="url(#1474c58322)"><g clip-path="url(#a58e125d8c)"><path fill="#2d3f50" d="M 0.0742188 0.464844 L 142.511719 0.464844 L 142.511719 90.5 L 0.0742188 90.5 Z M 0.0742188 0.464844 " fill-opacity="1" fill-rule="nonzero"/></g></g></g></g></g></g><g clip-path="url(#c37d8c9848)"><g clip-path="url(#25f04a205b)"><path stroke-linecap="butt" transform="matrix(0.75, 0, 0, 0.75, 13.074215, 13.465179)" fill="none" stroke-linejoin="miter" d="M 23.005213 -0.000446933 L 166.885422 -0.000446933 C 172.98438 -0.000446933 178.833338 2.421428 183.145838 6.733928 C 187.463547 11.046428 189.885422 16.895386 189.885422 22.999553 L 189.885422 97.036012 C 189.885422 103.13497 187.463547 108.983928 183.145838 113.296428 C 178.833338 117.608928 172.98438 120.030803 166.885422 120.030803 L 23.005213 120.030803 C 16.906255 120.030803 11.057296 117.608928 6.744796 113.296428 C 2.427088 108.983928 0.00521295 103.13497 0.00521295 97.036012 L 0.00521295 22.999553 C 0.00521295 16.895386 2.427088 11.046428 6.744796 6.733928 C 11.057296 2.421428 16.906255 -0.000446933 23.005213 -0.000446933 Z M 23.005213 -0.000446933 " stroke="#00f2ff" stroke-width="8" stroke-opacity="1" stroke-miterlimit="4"/></g></g></g></g></g><g mask="url(#4761bfb082)"><g transform="matrix(1, 0, 0, 1, 182, 24)"><g clip-path="url(#86ee1601cd)"><g clip-path="url(#fb62f4b4bc)"><g clip-path="url(#0a6a226451)"><g transform="matrix(1, 0, 0, 1, 13, 13)"><g clip-path="url(#b79ba48b6b)"><g clip-path="url(#a6d8aa07e9)"><g clip-path="url(#1e4ba8aa4e)"><path fill="#2d3f50" d="M 0.0742188 0.5 L 142.347656 0.5 L 142.347656 90.429688 L 0.0742188 90.429688 Z M 0.0742188 0.5 " fill-opacity="1" fill-rule="nonzero"/></g></g></g></g></g></g><g clip-path="url(#5b464753f8)"><g clip-path="url(#ff9eb7ca7c)"><path stroke-linecap="butt" transform="matrix(0.75, 0, 0, 0.75, 13.074215, 13.499998)" fill="none" stroke-linejoin="miter" d="M 23.000006 0.00521162 L 166.890641 0.00521162 C 172.989599 0.00521162 178.843766 2.427087 183.156267 6.739587 C 187.468767 11.052087 189.890642 16.901046 189.890642 23.000005 L 189.890642 96.90626 C 189.890642 103.005218 187.468767 108.854177 183.156267 113.166677 C 178.843766 117.479178 172.989599 119.901053 166.890641 119.901053 L 23.000006 119.901053 C 16.901047 119.901053 11.04688 117.479178 6.73438 113.166677 C 2.42188 108.854177 0.00000461317 103.005218 0.00000461317 96.90626 L 0.00000461317 23.000005 C 0.00000461317 16.901046 2.42188 11.052087 6.73438 6.739587 C 11.04688 2.427087 16.901047 0.00521162 23.000006 0.00521162 Z M 23.000006 0.00521162 " stroke="#00f2ff" stroke-width="8" stroke-opacity="1" stroke-miterlimit="4"/></g></g></g></g></g></svg>