<svg xmlns="http://www.w3.org/2000/svg" xmlns:xlink="http://www.w3.org/1999/xlink" width="500" zoomAndPan="magnify" viewBox="0 0 375 374.999991" height="500" preserveAspectRatio="xMidYMid meet" version="1.0"><defs><clipPath id="7d3e89ec8d"><path d="M 37.5 37.5 L 180.066406 37.5 L 180.066406 337.667969 L 37.5 337.667969 Z M 37.5 37.5 " clip-rule="nonzero"/></clipPath><clipPath id="80a8313fc7"><path d="M 54.75 37.5 L 162.816406 37.5 C 167.390625 37.5 171.777344 39.316406 175.011719 42.550781 C 178.246094 45.789062 180.066406 50.175781 180.066406 54.75 L 180.066406 320.25 C 180.066406 324.824219 178.246094 329.210938 175.011719 332.449219 C 171.777344 335.683594 167.390625 337.5 162.816406 337.5 L 54.75 337.5 C 50.175781 337.5 45.789062 335.683594 42.550781 332.449219 C 39.316406 329.210938 37.5 324.824219 37.5 320.25 L 37.5 54.75 C 37.5 50.175781 39.316406 45.789062 42.550781 42.550781 C 45.789062 39.316406 50.175781 37.5 54.75 37.5 Z M 54.75 37.5 " clip-rule="nonzero"/></clipPath><clipPath id="92f098b661"><path d="M 0.5 0.5 L 143.066406 0.5 L 143.066406 300.667969 L 0.5 300.667969 Z M 0.5 0.5 " clip-rule="nonzero"/></clipPath><clipPath id="f063f8c634"><path d="M 17.75 0.5 L 125.816406 0.5 C 130.390625 0.5 134.777344 2.316406 138.011719 5.550781 C 141.246094 8.789062 143.066406 13.175781 143.066406 17.75 L 143.066406 283.25 C 143.066406 287.824219 141.246094 292.210938 138.011719 295.449219 C 134.777344 298.683594 130.390625 300.5 125.816406 300.5 L 17.75 300.5 C 13.175781 300.5 8.789062 298.683594 5.550781 295.449219 C 2.316406 292.210938 0.5 287.824219 0.5 283.25 L 0.5 17.75 C 0.5 13.175781 2.316406 8.789062 5.550781 5.550781 C 8.789062 2.316406 13.175781 0.5 17.75 0.5 Z M 17.75 0.5 " clip-rule="nonzero"/></clipPath><clipPath id="8403788abc"><rect x="0" width="144" y="0" height="301"/></clipPath><clipPath id="28442e007d"><path d="M 37.5 37.507812 L 180 37.507812 L 180 337.5 L 37.5 337.5 Z M 37.5 37.507812 " clip-rule="nonzero"/></clipPath><clipPath id="2e1df41316"><path d="M 54.75 37.507812 L 162.808594 37.507812 C 167.382812 37.507812 171.773438 39.324219 175.007812 42.558594 C 178.242188 45.792969 180.058594 50.179688 180.058594 54.757812 L 180.058594 320.242188 C 180.058594 324.820312 178.242188 329.207031 175.007812 332.441406 C 171.773438 335.675781 167.382812 337.492188 162.808594 337.492188 L 54.75 337.492188 C 50.175781 337.492188 45.785156 335.675781 42.550781 332.441406 C 39.316406 329.207031 37.5 324.820312 37.5 320.242188 L 37.5 54.757812 C 37.5 50.179688 39.316406 45.792969 42.550781 42.558594 C 45.785156 39.324219 50.175781 37.507812 54.75 37.507812 Z M 54.75 37.507812 " clip-rule="nonzero"/></clipPath><clipPath id="1726cdb79e"><path d="M 195.074219 142.535156 L 337.699219 142.535156 L 337.699219 232.464844 L 195.074219 232.464844 Z M 195.074219 142.535156 " clip-rule="nonzero"/></clipPath><clipPath id="844cc939f7"><path d="M 212.324219 142.535156 L 320.25 142.535156 C 324.824219 142.535156 329.210938 144.351562 332.449219 147.585938 C 335.683594 150.820312 337.5 155.210938 337.5 159.785156 L 337.5 215.214844 C 337.5 219.789062 335.683594 224.179688 332.449219 227.414062 C 329.210938 230.648438 324.824219 232.464844 320.25 232.464844 L 212.324219 232.464844 C 207.75 232.464844 203.363281 230.648438 200.125 227.414062 C 196.890625 224.179688 195.074219 219.789062 195.074219 215.214844 L 195.074219 159.785156 C 195.074219 155.210938 196.890625 150.820312 200.125 147.585938 C 203.363281 144.351562 207.75 142.535156 212.324219 142.535156 Z M 212.324219 142.535156 " clip-rule="nonzero"/></clipPath><clipPath id="d39f4fe676"><path d="M 0.0742188 0.535156 L 142.679688 0.535156 L 142.679688 90.464844 L 0.0742188 90.464844 Z M 0.0742188 0.535156 " clip-rule="nonzero"/></clipPath><clipPath id="4d53e55c60"><path d="M 17.324219 0.535156 L 125.25 0.535156 C 129.824219 0.535156 134.210938 2.351562 137.449219 5.585938 C 140.683594 8.820312 142.5 13.210938 142.5 17.785156 L 142.5 73.214844 C 142.5 77.789062 140.683594 82.179688 137.449219 85.414062 C 134.210938 88.648438 129.824219 90.464844 125.25 90.464844 L 17.324219 90.464844 C 12.75 90.464844 8.363281 88.648438 5.125 85.414062 C 1.890625 82.179688 0.0742188 77.789062 0.0742188 73.214844 L 0.0742188 17.785156 C 0.0742188 13.210938 1.890625 8.820312 5.125 5.585938 C 8.363281 2.351562 12.75 0.535156 17.324219 0.535156 Z M 17.324219 0.535156 " clip-rule="nonzero"/></clipPath><clipPath id="1142e0b192"><rect x="0" width="143" y="0" height="91"/></clipPath><clipPath id="25e384f94a"><path d="M 195.074219 142.535156 L 337.574219 142.535156 L 337.574219 232.535156 L 195.074219 232.535156 Z M 195.074219 142.535156 " clip-rule="nonzero"/></clipPath><clipPath id="9918f2353d"><path d="M 212.324219 142.535156 L 320.242188 142.535156 C 324.816406 142.535156 329.207031 144.355469 332.441406 147.589844 C 335.675781 150.824219 337.492188 155.210938 337.492188 159.785156 L 337.492188 215.214844 C 337.492188 219.789062 335.675781 224.175781 332.441406 227.410156 C 329.207031 230.644531 324.816406 232.460938 320.242188 232.460938 L 212.324219 232.460938 C 207.75 232.460938 203.359375 230.644531 200.125 227.410156 C 196.890625 224.175781 195.074219 219.789062 195.074219 215.214844 L 195.074219 159.785156 C 195.074219 155.210938 196.890625 150.824219 200.125 147.589844 C 203.359375 144.355469 207.75 142.535156 212.324219 142.535156 Z M 212.324219 142.535156 " clip-rule="nonzero"/></clipPath><clipPath id="81c28268e9"><path d="M 195.074219 247.464844 L 337.511719 247.464844 L 337.511719 337.5 L 195.074219 337.5 Z M 195.074219 247.464844 " clip-rule="nonzero"/></clipPath><clipPath id="28b8ec0ff7"><path d="M 212.324219 247.464844 L 320.25 247.464844 C 324.824219 247.464844 329.210938 249.28125 332.449219 252.519531 C 335.683594 255.753906 337.5 260.140625 337.5 264.714844 L 337.5 320.25 C 337.5 324.824219 335.683594 329.210938 332.449219 332.449219 C 329.210938 335.683594 324.824219 337.5 320.25 337.5 L 212.324219 337.5 C 207.75 337.5 203.363281 335.683594 200.125 332.449219 C 196.890625 329.210938 195.074219 324.824219 195.074219 320.25 L 195.074219 264.714844 C 195.074219 260.140625 196.890625 255.753906 200.125 252.519531 C 203.363281 249.28125 207.75 247.464844 212.324219 247.464844 Z M 212.324219 247.464844 " clip-rule="nonzero"/></clipPath><clipPath id="d2291fff7b"><path d="M 0.0742188 0.464844 L 142.511719 0.464844 L 142.511719 90.5 L 0.0742188 90.5 Z M 0.0742188 0.464844 " clip-rule="nonzero"/></clipPath><clipPath id="6780333587"><path d="M 17.324219 0.464844 L 125.25 0.464844 C 129.824219 0.464844 134.210938 2.28125 137.449219 5.519531 C 140.683594 8.753906 142.5 13.140625 142.5 17.714844 L 142.5 73.25 C 142.5 77.824219 140.683594 82.210938 137.449219 85.449219 C 134.210938 88.683594 129.824219 90.5 125.25 90.5 L 17.324219 90.5 C 12.75 90.5 8.363281 88.683594 5.125 85.449219 C 1.890625 82.210938 0.0742188 77.824219 0.0742188 73.25 L 0.0742188 17.714844 C 0.0742188 13.140625 1.890625 8.753906 5.125 5.519531 C 8.363281 2.28125 12.75 0.464844 17.324219 0.464844 Z M 17.324219 0.464844 " clip-rule="nonzero"/></clipPath><clipPath id="aa6e7fdc87"><rect x="0" width="143" y="0" height="91"/></clipPath><clipPath id="311397dd8c"><path d="M 195.078125 247.464844 L 337.574219 247.464844 L 337.574219 337.464844 L 195.078125 337.464844 Z M 195.078125 247.464844 " clip-rule="nonzero"/></clipPath><clipPath id="f3bd4ba73d"><path d="M 212.328125 247.464844 L 320.238281 247.464844 C 324.8125 247.464844 329.199219 249.28125 332.433594 252.515625 C 335.671875 255.75 337.488281 260.136719 337.488281 264.714844 L 337.488281 320.242188 C 337.488281 324.816406 335.671875 329.203125 332.433594 332.4375 C 329.199219 335.671875 324.8125 337.488281 320.238281 337.488281 L 212.328125 337.488281 C 207.753906 337.488281 203.367188 335.671875 200.132812 332.4375 C 196.894531 329.203125 195.078125 324.816406 195.078125 320.242188 L 195.078125 264.714844 C 195.078125 260.136719 196.894531 255.75 200.132812 252.515625 C 203.367188 249.28125 207.753906 247.464844 212.328125 247.464844 Z M 212.328125 247.464844 " clip-rule="nonzero"/></clipPath><clipPath id="48819cd522"><path d="M 195.074219 37.5 L 337.699219 37.5 L 337.699219 127.429688 L 195.074219 127.429688 Z M 195.074219 37.5 " clip-rule="nonzero"/></clipPath><clipPath id="73c0733a44"><path d="M 212.324219 37.5 L 320.25 37.5 C 324.824219 37.5 329.210938 39.316406 332.449219 42.550781 C 335.683594 45.789062 337.5 50.175781 337.5 54.75 L 337.5 110.179688 C 337.5 114.753906 335.683594 119.144531 332.449219 122.378906 C 329.210938 125.613281 324.824219 127.429688 320.25 127.429688 L 212.324219 127.429688 C 207.75 127.429688 203.363281 125.613281 200.125 122.378906 C 196.890625 119.144531 195.074219 114.753906 195.074219 110.179688 L 195.074219 54.75 C 195.074219 50.175781 196.890625 45.789062 200.125 42.550781 C 203.363281 39.316406 207.75 37.5 212.324219 37.5 Z M 212.324219 37.5 " clip-rule="nonzero"/></clipPath><clipPath id="73b704a1d2"><path d="M 0.0742188 0.5 L 142.679688 0.5 L 142.679688 90.429688 L 0.0742188 90.429688 Z M 0.0742188 0.5 " clip-rule="nonzero"/></clipPath><clipPath id="a5e2e50f9d"><path d="M 17.324219 0.5 L 125.25 0.5 C 129.824219 0.5 134.210938 2.316406 137.449219 5.550781 C 140.683594 8.789062 142.5 13.175781 142.5 17.75 L 142.5 73.179688 C 142.5 77.753906 140.683594 82.144531 137.449219 85.378906 C 134.210938 88.613281 129.824219 90.429688 125.25 90.429688 L 17.324219 90.429688 C 12.75 90.429688 8.363281 88.613281 5.125 85.378906 C 1.890625 82.144531 0.0742188 77.753906 0.0742188 73.179688 L 0.0742188 17.75 C 0.0742188 13.175781 1.890625 8.789062 5.125 5.550781 C 8.363281 2.316406 12.75 0.5 17.324219 0.5 Z M 17.324219 0.5 " clip-rule="nonzero"/></clipPath><clipPath id="0c78aa97bf"><rect x="0" width="143" y="0" height="91"/></clipPath><clipPath id="5c91a123cf"><path d="M 195.074219 37.503906 L 337.574219 37.503906 L 337.574219 127.5 L 195.074219 127.5 Z M 195.074219 37.503906 " clip-rule="nonzero"/></clipPath><clipPath id="33e8d5cfad"><path d="M 212.324219 37.503906 L 320.242188 37.503906 C 324.816406 37.503906 329.207031 39.320312 332.441406 42.554688 C 335.675781 45.789062 337.492188 50.175781 337.492188 54.75 L 337.492188 110.179688 C 337.492188 114.753906 335.675781 119.140625 332.441406 122.375 C 329.207031 125.609375 324.816406 127.425781 320.242188 127.425781 L 212.324219 127.425781 C 207.75 127.425781 203.359375 125.609375 200.125 122.375 C 196.890625 119.140625 195.074219 114.753906 195.074219 110.179688 L 195.074219 54.75 C 195.074219 50.175781 196.890625 45.789062 200.125 42.554688 C 203.359375 39.320312 207.75 37.503906 212.324219 37.503906 Z M 212.324219 37.503906 " clip-rule="nonzero"/></clipPath></defs><path fill="#16161e" d="M 93.796875 -0.046875 C 42.023438 -0.046875 0.046875 41.929688 0.046875 93.703125 L 0.046875 281.203125 C 0.046875 332.976562 42.023438 374.953125 93.796875 374.953125 L 281.296875 374.953125 C 333.070312 374.953125 375.046875 332.976562 375.046875 281.203125 L 375.046875 93.703125 C 375.046875 41.929688 333.070312 -0.046875 281.296875 -0.046875 Z M 93.796875 -0.046875 " fill-opacity="1" fill-rule="nonzero"/><g clip-path="url(#7d3e89ec8d)"><g clip-path="url(#80a8313fc7)"><g transform="matrix(1, 0, 0, 1, 37, 37)"><g clip-path="url(#8403788abc)"><g clip-path="url(#92f098b661)"><g clip-path="url(#f063f8c634)"><path fill="#2d3f50" d="M 0.5 0.5 L 143.066406 0.5 L 143.066406 300.667969 L 0.5 300.667969 Z M 0.5 0.5 " fill-opacity="1" fill-rule="nonzero"/></g></g></g></g></g></g><g clip-path="url(#28442e007d)"><g clip-path="url(#2e1df41316)"><path stroke-linecap="butt" transform="matrix(0.75, 0, 0, 0.75, 37.500002, 37.499998)" fill="none" stroke-linejoin="miter" d="M 22.999999 0.01042 L 167.078133 0.01042 C 173.177092 0.01042 179.031259 2.432295 183.343759 6.744795 C 187.65626 11.057296 190.078135 16.906254 190.078135 23.010421 L 190.078135 376.989611 C 190.078135 383.093778 187.65626 388.942737 183.343759 393.255237 C 179.031259 397.567738 173.177092 399.989613 167.078133 399.989613 L 22.999999 399.989613 C 16.90104 399.989613 11.046873 397.567738 6.734373 393.255237 C 2.421872 388.942737 -0.00000271667 383.093778 -0.00000271667 376.989611 L -0.00000271667 23.010421 C -0.00000271667 16.906254 2.421872 11.057296 6.734373 6.744795 C 11.046873 2.432295 16.90104 0.01042 22.999999 0.01042 Z M 22.999999 0.01042 " stroke="#00f2ff" stroke-width="8" stroke-opacity="1" stroke-miterlimit="4"/></g></g><g clip-path="url(#1726cdb79e)"><g clip-path="url(#844cc939f7)"><g transform="matrix(1, 0, 0, 1, 195, 142)"><g clip-path="url(#1142e0b192)"><g clip-path="url(#d39f4fe676)"><g clip-path="url(#4d53e55c60)"><path fill="#2d3f50" d="M 0.0742188 0.535156 L 142.347656 0.535156 L 142.347656 90.464844 L 0.0742188 90.464844 Z M 0.0742188 0.535156 " fill-opacity="1" fill-rule="nonzero"/></g></g></g></g></g></g><g clip-path="url(#25e384f94a)"><g clip-path="url(#9918f2353d)"><path stroke-linecap="butt" transform="matrix(0.75, 0, 0, 0.75, 195.074216, 142.534781)" fill="none" stroke-linejoin="miter" d="M 23.000005 0.00050028 L 166.890639 0.00050028 C 172.989598 0.00050028 178.843765 2.427584 183.156265 6.740084 C 187.468765 11.052584 189.89064 16.901543 189.89064 23.000502 L 189.89064 96.906757 C 189.89064 103.005715 187.468765 108.854674 183.156265 113.167174 C 178.843765 117.479675 172.989598 119.90155 166.890639 119.90155 L 23.000005 119.90155 C 16.901046 119.90155 11.046879 117.479675 6.734378 113.167174 C 2.421878 108.854674 0.00000301317 103.005715 0.00000301317 96.906757 L 0.00000301317 23.000502 C 0.00000301317 16.901543 2.421878 11.052584 6.734378 6.740084 C 11.046879 2.427584 16.901046 0.00050028 23.000005 0.00050028 Z M 23.000005 0.00050028 " stroke="#f168fd" stroke-width="8" stroke-opacity="1" stroke-miterlimit="4"/></g></g><g clip-path="url(#81c28268e9)"><g clip-path="url(#28b8ec0ff7)"><g transform="matrix(1, 0, 0, 1, 195, 247)"><g clip-path="url(#aa6e7fdc87)"><g clip-path="url(#d2291fff7b)"><g clip-path="url(#6780333587)"><path fill="#2d3f50" d="M 0.0742188 0.464844 L 142.511719 0.464844 L 142.511719 90.5 L 0.0742188 90.5 Z M 0.0742188 0.464844 " fill-opacity="1" fill-rule="nonzero"/></g></g></g></g></g></g><g clip-path="url(#311397dd8c)"><g clip-path="url(#f3bd4ba73d)"><path stroke-linecap="butt" transform="matrix(0.75, 0, 0, 0.75, 195.074216, 247.465179)" fill="none" stroke-linejoin="miter" d="M 23.005211 -0.000446933 L 166.88542 -0.000446933 C 172.984378 -0.000446933 178.833337 2.421428 183.145837 6.733928 C 187.463545 11.046428 189.88542 16.895386 189.88542 22.999553 L 189.88542 97.036012 C 189.88542 103.13497 187.463545 108.983928 183.145837 113.296428 C 178.833337 117.608928 172.984378 120.030803 166.88542 120.030803 L 23.005211 120.030803 C 16.906253 120.030803 11.057295 117.608928 6.744795 113.296428 C 2.427086 108.983928 0.00521135 103.13497 0.00521135 97.036012 L 0.00521135 22.999553 C 0.00521135 16.895386 2.427086 11.046428 6.744795 6.733928 C 11.057295 2.421428 16.906253 -0.000446933 23.005211 -0.000446933 Z M 23.005211 -0.000446933 " stroke="#f168fd" stroke-width="8" stroke-opacity="1" stroke-miterlimit="4"/></g></g><g clip-path="url(#48819cd522)"><g clip-path="url(#73c0733a44)"><g transform="matrix(1, 0, 0, 1, 195, 37)"><g clip-path="url(#0c78aa97bf)"><g clip-path="url(#73b704a1d2)"><g clip-path="url(#a5e2e50f9d)"><path fill="#2d3f50" d="M 0.0742188 0.5 L 142.347656 0.5 L 142.347656 90.429688 L 0.0742188 90.429688 Z M 0.0742188 0.5 " fill-opacity="1" fill-rule="nonzero"/></g></g></g></g></g></g><g clip-path="url(#5c91a123cf)"><g clip-path="url(#33e8d5cfad)"><path stroke-linecap="butt" transform="matrix(0.75, 0, 0, 0.75, 195.074216, 37.499998)" fill="none" stroke-linejoin="miter" d="M 23.000005 0.00521162 L 166.890639 0.00521162 C 172.989598 0.00521162 178.843765 2.427087 183.156265 6.739587 C 187.468765 11.052087 189.89064 16.901046 189.89064 23.000005 L 189.89064 96.90626 C 189.89064 103.005218 187.468765 108.854177 183.156265 113.166677 C 178.843765 117.479178 172.989598 119.901053 166.890639 119.901053 L 23.000005 119.901053 C 16.901046 119.901053 11.046879 117.479178 6.734378 113.166677 C 2.421878 108.854177 0.00000301317 103.005218 0.00000301317 96.90626 L 0.00000301317 23.000005 C 0.00000301317 16.901046 2.421878 11.052087 6.734378 6.739587 C 11.046879 2.427087 16.901046 0.00521162 23.000005 0.00521162 Z M 23.000005 0.00521162 " stroke="#f168fd" stroke-width="8" stroke-opacity="1" stroke-miterlimit="4"/></g></g></svg>